Coordinates
version=1
nRows=8
nColumns=36
inDegrees=yes

Units are S.I. units (second, meters, Newtons, ...)
If the header above contains a line with 'inDegrees', this indicates whether rotational values are in degrees (yes) or radians (no).

endheader
time	pelvis_tilt	pelvis_list	pelvis_rotation	pelvis_tx	pelvis_ty	pelvis_tz	hip_flexion_r	hip_adduction_r	hip_rotation_r	knee_angle_r	knee_angle_r_beta	ankle_angle_r	subtalar_angle_r	mtp_angle_r	hip_flexion_l	hip_adduction_l	hip_rotation_l	knee_angle_l	knee_angle_l_beta	ankle_angle_l	subtalar_angle_l	mtp_angle_l	lumbar_extension	lumbar_bending	lumbar_rotation	arm_flex_r	arm_add_r	arm_rot_r	elbow_flex_r	pro_sup_r	arm_flex_l	arm_add_l	arm_rot_l	elbow_flex_l	pro_sup_l
     44.65000000	      0.01112727	      0.30011783	    178.50956707	      0.55029044	      1.06664505	      0.68399302	     16.63383898	     -0.03967036	      7.06188052	      8.14187637	      0.14210255	     -7.60387208	     -3.81111830	     -7.49999987	     -1.66705652	     -0.48985960	     -0.05750195	     34.92073901	      0.60948187	      4.68187496	     -4.92650457	     -7.49999987	    -14.74908967	     -1.70109634	      1.06187633	      4.66476158	    -10.05488481	      2.97198516	     21.92437267	    102.70910604	     21.42301839	    -13.17390026	      0.02963700	     32.54257904	     99.04729652
     44.66666670	     -0.54896234	      0.99080809	    178.61483672	      0.54899372	      1.06539476	      0.68085095	     15.92933364	      0.95273595	      7.28019811	      9.91069872	      0.17297432	     -6.90550081	     -5.11339094	     -7.49999987	      0.23822391	     -1.85439031	     -0.65762170	     41.64526224	      0.72684694	      1.92678141	     -5.27699449	     -7.49999987	    -15.25259409	     -0.82005741	      1.48613307	      4.95006147	    -10.51561040	      2.98901332	     22.22359957	    102.43169172	     21.03406577	    -12.74763393	     -0.08524025	     32.47978013	     98.79782223
     44.68333330	     -0.70678845	      1.52859619	    178.82746336	      0.54893739	      1.06463275	      0.67933906	     15.49714056	      1.81354136	      7.60935082	     11.25439501	      0.19642625	     -6.32247723	     -6.64358079	     -7.49999987	      2.70967344	     -3.06239386	     -0.90802258	     48.18463633	      0.84098055	     -1.21037269	     -5.78356930	     -7.49999987	    -15.12886063	     -0.09427174	      1.75120777	      5.25435456	    -10.95177446	      3.28067607	     22.53474806	    102.47594872	     20.50928911	    -12.34866480	     -0.39675287	     31.72611475	     98.77958703
     44.70000000	     -1.32332928	      1.99940291	    179.04372819	      0.54977204	      1.06510964	      0.67916126	     14.46052634	      2.56245982	      7.67312904	     12.24405590	      0.21369909	     -5.49141026	     -7.42820561	     -7.49999987	      4.57211410	     -4.11690684	     -1.05330311	     54.12151480	      0.94459863	     -4.05793975	     -6.16018140	     -7.49999987	    -15.70777566	      0.58804972	      2.07258968	      5.92987960	    -11.38840328	      3.36631415	     22.64953951	    102.59681027	     20.07338295	    -11.96938480	     -0.39821949	     31.28444017	     98.89694675
     44.71666670	     -1.23185211	      2.47393233	    179.31024431	      0.54922598	      1.06533489	      0.67779373	     14.08613031	      3.30438144	      7.49406964	     13.10320132	      0.22869401	     -5.03883505	     -8.24569252	     -7.49999987	      7.23503729	     -5.10152907	     -0.94807175	     59.80429464	      1.04378185	     -6.12185368	     -6.46639356	     -7.49999987	    -15.25788903	      1.25770715	      2.19631080	      6.52703549	    -11.86862527	      3.94093542	     22.83798254	    102.77387406	     19.31325024	    -11.49414188	     -0.41353244	     30.14831761	     99.13274079
     44.73333330	     -1.53726840	      3.03778859	    179.40324490	      0.54639703	      1.06601510	      0.67429556	     13.18144052	      4.16661503	      7.22644073	     14.04758648	      0.24517664	     -4.55010763	     -8.78696968	     -7.49999987	      9.29150954	     -6.22314977	     -1.00409036	     64.81715097	      1.13127270	     -7.31726150	     -6.45979154	     -7.49999987	    -15.28139759	      1.99787954	      2.58416178	      7.21577258	    -12.37677269	      4.47852476	     22.85231086	    102.88087292	     18.56837554	    -10.88464533	     -0.34446394	     29.29960851	     99.39137349
     44.75000000	     -1.93256415	      3.63438995	    179.40491893	      0.54171945	      1.06601438	      0.67104471	     11.99199202	      5.07132643	      6.83722232	     15.17009068	      0.26476803	     -4.13512876	     -9.27884541	     -7.49999987	     11.14063610	     -7.38226654	     -1.03239928	     69.04088282	      1.20499072	     -7.75805434	     -6.34665350	     -7.49999987	    -15.35745776	      2.72802245	      3.09479744	      7.83250903	    -12.87941614	      5.01418390	     22.86340938	    102.90373639	     17.78307504	    -10.27894164	     -0.31802457	     28.33114330	     99.63652693
     44.76666670	     -2.42914074	      4.15610722	    179.39754963	      0.53852327	      1.06666453	      0.67074270	     10.50998920	      5.85570882	      6.38786595	     16.46401905	      0.28735134	     -3.72847859	     -9.77590464	     -7.49999987	     12.78919575	     -8.37066405	     -1.00227531	     72.27060510	      1.26136001	     -7.55553860	     -6.50673745	     -7.49999987	    -15.48686605	      3.31619081	      3.68752182	      8.49571461	    -13.46744172	      6.63174549	     22.61207501	    102.60332537	     17.30908815	     -9.70747837	     -0.11200968	     26.75153062	    100.40141976
